<svg width="20" height="20" viewBox="0 0 20 20" fill="none" xmlns="http://www.w3.org/2000/svg">
<path d="M20 10C20 11.1184 19.0933 12.0251 17.9749 12.0251H12.0497V17.9503C12.0497 19.0823 11.132 20 10 20C8.86799 20 7.95031 19.0823 7.95031 17.9503V12.0251H2.02512C0.906674 12.0251 0 11.1184 0 10C0 8.88156 0.906676 7.97488 2.02512 7.97488H7.95031V2.04969C7.95031 0.917677 8.86799 0 10 0C11.132 0 12.0497 0.917677 12.0497 2.04969V7.97488H17.9749C19.0933 7.97488 20 8.88156 20 10Z" fill="white"/>
</svg>
