<svg width="42" height="42" viewBox="0 0 42 42" fill="none" xmlns="http://www.w3.org/2000/svg">
<rect opacity="0.1" width="42" height="42" rx="21" fill="#CCD0CE"/>
<path d="M26.865 15.4805V14.6367C26.865 13.1828 25.6798 12 24.2231 12H17.7417C16.285 12 15.0998 13.1828 15.0998 14.6367V15.4805H26.865Z" fill="#8E8E8E"/>
<path d="M16.1566 23.2148V28.9453C16.1566 29.5278 16.6297 30 17.2133 30H24.7515C25.3351 30 25.8082 29.5278 25.8082 28.9453V23.2148H16.1566ZM22.3914 27.7148H19.5734C19.2816 27.7148 19.045 27.4787 19.045 27.1875C19.045 26.8963 19.2816 26.6602 19.5734 26.6602H22.3914C22.6832 26.6602 22.9198 26.8963 22.9198 27.1875C22.9198 27.4787 22.6832 27.7148 22.3914 27.7148ZM22.3914 25.4648H19.5734C19.2816 25.4648 19.045 25.2287 19.045 24.9375C19.045 24.6463 19.2816 24.4102 19.5734 24.4102H22.3914C22.6832 24.4102 22.9198 24.6463 22.9198 24.9375C22.9198 25.2287 22.6832 25.4648 22.3914 25.4648Z" fill="#8E8E8E"/>
<path d="M27.3581 16.5352H14.6419C13.1851 16.5352 12 17.718 12 19.1719V23.3906C12 24.8445 13.1851 26.0273 14.6419 26.0273H15.0998V23.2148H14.7828C14.491 23.2148 14.2544 22.9787 14.2544 22.6875C14.2544 22.3963 14.491 22.1602 14.7828 22.1602H27.182C27.4738 22.1602 27.7104 22.3963 27.7104 22.6875C27.7104 22.9787 27.4738 23.2148 27.182 23.2148H26.865V26.0273H27.3581C28.8149 26.0273 30 24.8445 30 23.3906V19.1719C30 17.718 28.8149 16.5352 27.3581 16.5352ZM16.4736 19.8398H14.7828C14.491 19.8398 14.2544 19.6037 14.2544 19.3125C14.2544 19.0213 14.491 18.7852 14.7828 18.7852H16.4736C16.7654 18.7852 17.002 19.0213 17.002 19.3125C17.002 19.6037 16.7654 19.8398 16.4736 19.8398Z" fill="#8E8E8E"/>
</svg>
