<svg width="24" height="24" viewBox="0 0 24 24" fill="none" xmlns="http://www.w3.org/2000/svg">
<path d="M10.2422 18.4718C5.69742 18.4718 2 14.7772 2 10.2359C2 5.69459 5.69742 2 10.2422 2C14.7869 2 18.4844 5.69459 18.4844 10.2359C18.4844 14.7772 14.7869 18.4718 10.2422 18.4718ZM10.2422 3.5613C6.55898 3.5613 3.5625 6.5555 3.5625 10.2359C3.5625 13.9163 6.55898 16.9105 10.2422 16.9105C13.9254 16.9105 16.9219 13.9163 16.9219 10.2359C16.9219 6.5555 13.9254 3.5613 10.2422 3.5613ZM21.7712 21.7713C22.0763 21.4665 22.0763 20.9722 21.7712 20.6673L18.2751 17.1739C17.97 16.869 17.4753 16.869 17.1702 17.1739C16.8651 17.4788 16.8651 17.9731 17.1702 18.2779L20.6663 21.7713C20.8188 21.9238 21.0188 22 21.2188 22C21.4187 22 21.6186 21.9238 21.7712 21.7713Z" fill="white"/>
</svg>
