<svg width="24" height="15" viewBox="0 0 24 15" fill="none" xmlns="http://www.w3.org/2000/svg">
<path fill-rule="evenodd" clip-rule="evenodd" d="M17.1094 0.141357C19.1902 0.624207 19.9861 1.84094 20.9841 3.51562H17.1094V0.141357ZM4.94897 3.65625C5.35638 3.65625 5.6521 3.85291 5.6521 4.3125C5.6521 4.70013 5.33844 5.01453 4.95099 5.01562H0.703125C0.314758 5.01562 0 5.33057 0 5.71875C0 6.10712 0.314758 6.42188 0.703125 6.42188H7.03125C7.42328 6.42188 7.73712 6.73645 7.73712 7.125C7.73712 7.51337 7.42236 7.82812 7.034 7.82812H0.703125C0.314758 7.82812 0 8.14288 0 8.53125C0 8.91962 0.314758 9.23438 0.703125 9.23438H2.25V11.3438C2.25 11.7321 2.56476 12.0469 2.95312 12.0469H4.36652C4.61847 13.288 5.71509 14.2031 7.00781 14.2031C8.30054 14.2031 9.39716 13.288 9.64911 12.0469H16.7884C17.0403 13.288 18.137 14.2031 19.4297 14.2031C20.7224 14.2031 21.819 13.288 22.071 12.0469H23.2969C23.6852 12.0469 24 11.7321 24 11.3438V7.125C24 5.06195 21.824 4.92499 21.822 4.92188H16.4062C16.0179 4.92188 15.7031 4.60712 15.7031 4.21875V0H2.95312C2.56476 0 2.25 0.314758 2.25 0.703125V2.25H1.40625C1.01788 2.25 0.703125 2.56476 0.703125 2.95312C0.703125 3.34149 1.01788 3.65625 1.40625 3.65625H4.94897ZM20.3412 10.5963C20.8445 11.0997 20.8445 11.9161 20.3412 12.4195C19.5315 13.2292 18.1406 12.6531 18.1406 11.5078C18.1406 10.3627 19.5315 9.78662 20.3412 10.5963ZM7.91931 10.5963C8.42267 11.0997 8.42267 11.9161 7.91931 12.4195C7.10962 13.2292 5.71875 12.6531 5.71875 11.5078C5.71875 10.3627 7.10962 9.78662 7.91931 10.5963Z" fill="#0629CD"/>
</svg>
